<?xml version="1.0"?>
<svg xmlns="http://www.w3.org/2000/svg" xmlns:xlink="http://www.w3.org/1999/xlink" version="1.1" id="Capa_1" x="0px" y="0px" viewBox="0 0 511.999 511.999" style="enable-background:new 0 0 511.999 511.999;" xml:space="preserve" width="512px" height="512px"><g><g>
	<g>
		<path d="M350.332,218.476l-31.336-81.396l-7.87-107.113c-0.039-0.533-0.111-1.057-0.204-1.571    c4.904-2.467,8.277-7.531,8.277-13.396c0-8.284-6.716-15-15-15h-96.4c-8.284,0-15,6.716-15,15c0,5.865,3.374,10.93,8.279,13.396    c-0.093,0.515-0.165,1.037-0.204,1.57l-7.872,107.113l-31.335,81.397c-0.661,1.72-1.001,3.546-1.001,5.389v273.134    c0,8.284,6.716,15,15,15h160.668c8.284,0,15-6.716,15-15V223.865C351.334,222.022,350.993,220.195,350.332,218.476z     M321.333,481.999H190.665v-66.4h130.668V481.999z M321.333,385.599H190.665v-114.6h130.668V385.599z M321.335,240.999H190.665    v-14.347l31.132-80.869c0.528-1.375,0.853-2.82,0.961-4.289l7.014-95.429h52.455l7.012,95.429c0.108,1.469,0.433,2.914,0.962,4.29    l31.133,80.869V240.999z" data-original="#000000" class="active-path" data-old_color="#000000" fill="#007BFF"/>
	</g>
</g></g> </svg>
