<?xml version="1.0"?>
<svg xmlns="http://www.w3.org/2000/svg" xmlns:xlink="http://www.w3.org/1999/xlink" version="1.1" id="Capa_1" x="0px" y="0px" viewBox="0 0 231.233 231.233" style="enable-background:new 0 0 231.233 231.233;" xml:space="preserve" width="512px" height="512px"><g><g>
	<path d="M230.505,102.78c-0.365-3.25-4.155-5.695-7.433-5.695c-10.594,0-19.996-6.218-23.94-15.842   c-4.025-9.855-1.428-21.346,6.465-28.587c2.487-2.273,2.789-6.079,0.706-8.721c-5.424-6.886-11.586-13.107-18.316-18.498   c-2.634-2.112-6.503-1.818-8.787,0.711c-6.892,7.632-19.271,10.468-28.836,6.477c-9.952-4.187-16.232-14.274-15.615-25.101   c0.202-3.403-2.285-6.36-5.676-6.755c-8.637-1-17.35-1.029-26.012-0.068c-3.348,0.37-5.835,3.257-5.723,6.617   c0.374,10.721-5.978,20.63-15.833,24.667c-9.451,3.861-21.744,1.046-28.62-6.519c-2.273-2.492-6.074-2.798-8.725-0.731   c-6.928,5.437-13.229,11.662-18.704,18.492c-2.133,2.655-1.818,6.503,0.69,8.784c8.049,7.289,10.645,18.879,6.466,28.849   c-3.991,9.505-13.86,15.627-25.156,15.627c-3.667-0.118-6.275,2.345-6.68,5.679c-1.017,8.683-1.028,17.535-0.05,26.29   c0.365,3.264,4.268,5.688,7.583,5.688c10.069-0.256,19.731,5.974,23.79,15.841c4.04,9.855,1.44,21.341-6.466,28.592   c-2.474,2.273-2.789,6.07-0.701,8.709c5.369,6.843,11.536,13.068,18.286,18.505c2.651,2.134,6.504,1.835,8.802-0.697   c6.918-7.65,19.294-10.481,28.822-6.482c9.98,4.176,16.258,14.262,15.645,25.092c-0.202,3.403,2.293,6.369,5.671,6.755   c4.42,0.517,8.863,0.773,13.321,0.773c4.23,0,8.46-0.231,12.69-0.702c3.353-0.37,5.835-3.26,5.722-6.621   c-0.387-10.716,5.979-20.626,15.821-24.655c9.515-3.886,21.752-1.042,28.634,6.512c2.284,2.487,6.061,2.789,8.725,0.73   c6.915-5.423,13.204-11.645,18.702-18.493c2.135-2.65,1.832-6.503-0.688-8.788c-8.048-7.284-10.657-18.879-6.478-28.839   c3.928-9.377,13.431-15.673,23.65-15.673l1.43,0.038c3.318,0.269,6.368-2.286,6.768-5.671   C231.476,120.379,231.487,111.537,230.505,102.78z M115.617,182.27c-36.813,0-66.654-29.841-66.654-66.653   s29.841-66.653,66.654-66.653c36.811,0,66.653,29.841,66.653,66.653S152.429,182.27,115.617,182.27z" data-original="#000000" class="active-path" data-old_color="#000000" fill="#007BFF"/>
	<path d="M152.434,81.953c-1.595-3.886-6.31-7.047-10.51-7.047H89.234c-4.2,0-8.915,3.161-10.51,7.046l-5.623,13.696l-5.355-1.475   c-0.479-0.132-0.958-0.199-1.426-0.199c-2.562,0-4.422,1.957-4.422,4.654v3.197c0,3.148,2.561,5.709,5.709,5.709h0.613   l-0.908,2.213c-1.481,3.609-2.688,9.72-2.688,13.623v27.246c0,3.148,2.561,5.71,5.709,5.71h7.459c3.148,0,5.709-2.562,5.709-5.71   v-6.804h64.154v6.804c0,3.148,2.561,5.71,5.709,5.71h7.457c3.148,0,5.709-2.562,5.709-5.71v-27.246   c0-3.901-1.205-10.013-2.687-13.623l-0.908-2.213h0.689c3.148,0,5.709-2.562,5.709-5.709v-3.197c0-2.697-1.859-4.654-4.422-4.654   c-0.468,0-0.947,0.067-1.427,0.199l-5.422,1.494L152.434,81.953z M77.195,104.434l8.517-20.745c0.954-2.324,3.79-4.226,6.302-4.226   h47.131c2.512,0,5.348,1.901,6.302,4.226l8.517,20.745c0.954,2.324-0.321,4.226-2.833,4.226H80.028   C77.517,108.66,76.241,106.759,77.195,104.434z M96.206,130.674c0,1.256-1.027,2.284-2.284,2.284H77.744   c-1.256,0-2.283-1.028-2.283-2.284v-7.764c0-1.256,1.027-2.284,2.283-2.284h16.178c1.257,0,2.284,1.028,2.284,2.284V130.674z    M155.543,130.674c0,1.256-1.027,2.284-2.283,2.284h-16.178c-1.257,0-2.284-1.028-2.284-2.284v-7.764   c0-1.256,1.027-2.284,2.284-2.284h16.178c1.256,0,2.283,1.028,2.283,2.284V130.674z" data-original="#000000" class="active-path" data-old_color="#000000" fill="#007BFF"/>
</g></g> </svg>
