<?xml version="1.0"?>
<svg xmlns="http://www.w3.org/2000/svg" height="512px" viewBox="0 0 58 54" width="512px" class=""><g><g id="006---Nuclear-Hazard"><path id="Shape" d="m32.87 35h6.13c-.2859743-2.8527789-1.7826671-5.4455896-4.11-7.12l-3 5.27c.4851124.5187291.8233648 1.1572668.98 1.85z" data-original="#000000" class="active-path" data-old_color="#000000" fill="#007BFF"/><path id="Shape" d="m27.93 39.85-3 5.26c2.6133445 1.1781954 5.6066555 1.1781954 8.22 0l-3-5.26c-.7251774.2094633-1.4948226.2094633-2.22 0z" data-original="#000000" class="active-path" data-old_color="#000000" fill="#007BFF"/><path id="Shape" d="m28 37.73c.7280965.4223534 1.6427094.3436331 2.2879289-.196921.6452194-.540554.8829358-1.4272359.5946537-2.2180584-.288282-.7908226-1.0408554-1.3165098-1.8825826-1.3150206-.9037926.001599-1.6942031.6091274-1.9282422 1.4820933-.2340391.8729658.1464589 1.7944107.9282422 2.2479067z" data-original="#000000" class="active-path" data-old_color="#000000" fill="#007BFF"/><path id="Shape" d="m23.16 27.88c-2.3273329 1.6744104-3.8240257 4.2672211-4.11 7.12h6.09c.1655601-.7010161.5342893-1.3375957 1.06-1.83z" data-original="#000000" class="active-path" data-old_color="#000000" fill="#007BFF"/><path id="Shape" d="m6 49h46l-23-42zm24.06-16.85 3.57-6.15c.1268196-.2365656.3434172-.4122169.6010744-.4874453.2576571-.0752283.5347401-.0437174.7689256.0874453 3.7151949 2.1449676 6.0027505 6.110064 6 10.4 0 .5522847-.4477153 1-1 1h-7.14c-.1655601.7010161-.5342893 1.3375957-1.06 1.83l3.57 6.17c.1400143.232262.1796889.5114315.109928.773506-.0697608.2620745-.2429738.4845761-.479928.616494-3.7128129 2.1435935-8.2871871 2.1435935-12 0-.2369542-.1319179-.4101672-.3544195-.479928-.616494-.0697609-.2620745-.0300863-.541244.109928-.773506l3.57-6.18c-.5132213-.4998948-.8827604-1.1284566-1.07-1.82h-7.13c-.5522847 0-1-.4477153-1-1-.0027505-4.289936 2.2848051-8.2550324 6-10.4.4779792-.2713883 1.0853915-.1061364 1.36.37l3.57 6.17c.6978539-.1892421 1.4339537-.1857862 2.13.01z" data-original="#000000" class="active-path" data-old_color="#000000" fill="#007BFF"/><path id="Shape" d="m31.8 1.72c-.5352035-1.05449442-1.6174598-1.71887369-2.8-1.71887369s-2.2647965.66437927-2.8 1.71887369l-25.74 46.98c-1.28 2.3.28 5.3 2.8 5.3h51.48c2.52 0 4.08-3 2.8-5.3zm21.89 49.28h-49.38c-.3536572.0009667-.68152327-.1849387-.86226944-.4889209s-.18748797-.6808263-.01773056-.9910791l24.69-45.06c.1745653-.3234232.5124736-.52502632.88-.52502632s.7054347.20160312.88.52502632l24.69 45.06c.1697574.3102528.1630156.6870969-.0177306.9910791-.1807461.3039822-.5086122.4898876-.8622694.4889209z" data-original="#000000" class="active-path" data-old_color="#000000" fill="#007BFF"/></g></g> </svg>
