<?xml version="1.0"?>
<svg xmlns="http://www.w3.org/2000/svg" id="Capa_1" enable-background="new 0 0 512 512" height="512px" viewBox="0 0 512 512" width="512px" class=""><g><g><path d="m0 472.835h512v37.469h-512z" data-original="#000000" class="active-path" data-old_color="#000000" fill="#007BFF"/><path d="m221 236.743h70v206.092h-70z" data-original="#000000" class="active-path" data-old_color="#000000" fill="#007BFF"/><path d="m25.83 166.328h460.341v40.415h-460.341z" data-original="#000000" class="active-path" data-old_color="#000000" fill="#007BFF"/><path d="m367.841 236.743h70v206.092h-70z" data-original="#000000" class="active-path" data-old_color="#000000" fill="#007BFF"/><path d="m256 59.5c-8.313 0-15.077 6.763-15.077 15.077 0 8.313 6.763 15.076 15.077 15.076s15.077-6.763 15.077-15.076c0-8.314-6.764-15.077-15.077-15.077z" data-original="#000000" class="active-path" data-old_color="#000000" fill="#007BFF"/><path d="m256 1.696-256 116.488v18.144h512v-18.144zm0 117.956c-24.855 0-45.077-20.221-45.077-45.076s20.221-45.077 45.077-45.077 45.077 20.221 45.077 45.077c0 24.855-20.222 45.076-45.077 45.076z" data-original="#000000" class="active-path" data-old_color="#000000" fill="#007BFF"/><path d="m74.159 236.743h70v206.092h-70z" data-original="#000000" class="active-path" data-old_color="#000000" fill="#007BFF"/></g></g> </svg>
