<?xml version="1.0"?>
<svg xmlns="http://www.w3.org/2000/svg" id="Capa_1" enable-background="new 0 0 512 512" height="512px" viewBox="0 0 512 512" width="512px" class=""><g><g><path d="m210 451h91v61h-91z" data-original="#000000" class="active-path" data-old_color="#000000" fill="#007BFF"/><path d="m180 436c0-8.291 6.709-15 15-15h121c8.291 0 15 6.709 15 15v76h61v-376c0-8.284-6.716-15-15-15h-46v-45c0-8.284-6.716-15-15-15h-45v-46c0-8.291-6.709-15-15-15s-15 6.709-15 15v46h-46c-8.284 0-15 6.716-15 15v45h-45c-8.284 0-15 6.716-15 15v376h60zm15-225h121c8.291 0 15 6.709 15 15s-6.709 15-15 15h-121c-8.291 0-15-6.709-15-15s6.709-15 15-15zm0 60h121c8.291 0 15 6.709 15 15s-6.709 15-15 15h-121c-8.291 0-15-6.709-15-15s6.709-15 15-15zm0 60h121c8.291 0 15 6.709 15 15s-6.709 15-15 15h-121c-8.291 0-15-6.709-15-15s6.709-15 15-15z" data-original="#000000" class="active-path" data-old_color="#000000" fill="#007BFF"/><path d="m15 512h75v-271h-30c-8.291 0-15 6.709-15 15v45h-30c-8.291 0-15 6.709-15 15v181c0 8.291 6.709 15 15 15zm15-136c0-8.291 6.709-15 15-15s15 6.709 15 15v60c0 8.291-6.709 15-15 15s-15-6.709-15-15z" data-original="#000000" class="active-path" data-old_color="#000000" fill="#007BFF"/><path d="m497 301h-30v-45c0-8.291-6.709-15-15-15h-30v271h75c8.291 0 15-6.709 15-15v-181c0-8.291-6.709-15-15-15zm-15 135c0 8.291-6.709 15-15 15s-15-6.709-15-15v-60c0-8.291 6.709-15 15-15s15 6.709 15 15z" data-original="#000000" class="active-path" data-old_color="#000000" fill="#007BFF"/></g></g> </svg>
