<?xml version="1.0"?>
<svg xmlns="http://www.w3.org/2000/svg" height="512px" viewBox="-91 0 512 512" width="512px"><g><path d="m291.3125 181.636719c5.394531-9 8.6875-19.402344 8.6875-30.636719 0-26.15625-16.917969-49.21875-40.3125-57.410156 6.503906-9.589844 10.3125-21.152344 10.3125-33.589844 0-33.089844-26.910156-60-60-60h-15v15c0 8.277344-6.722656 15-15 15h-75c-24.8125 0-45 20.1875-45 45 0 7.433594 1.984375 14.34375 5.1875 20.527344-20.703125 9.46875-35.1875 31.253906-35.1875 55.472656 0 11.234375 3.292969 21.636719 8.6875 30.636719-21.835938 3.09375-38.6875 21.671875-38.6875 44.363281 0 24.851562 20.148438 45 45 45h90v30c0 16.566406 13.429688 30 30 30s30-13.433594 30-30v-30h90c24.851562 0 45-20.148438 45-45 0-22.691406-16.851562-41.269531-38.6875-44.363281zm0 0" data-original="#000000" class="active-path" data-old_color="#000000" fill="#007BFF"/><path d="m221.308594 512 60.007812-211h-56.316406c0 33.089844-26.910156 60-60 60s-60-26.910156-60-60h-56.316406l60.007812 211zm0 0" data-original="#000000" class="active-path" data-old_color="#000000" fill="#007BFF"/></g> </svg>
